<svg width="1440" height="544" fill="none" xmlns="http://www.w3.org/2000/svg"><g clip-path="url(#a)" filter="url(#b)"><path opacity=".15" d="M1374.19 237.88c33.51 37.09 60.69 101.571 10.61 147.093-5.17 4.693-53.62 47.275-126.5 41.987-88.76-6.44-106.96-76.148-204.92-94.244-106.082-19.597-168.343 46.709-220.149 26.34-61.26-24.086-68.78-153.985 42.1-209.66 133.579-67.07 408.749-11.245 498.859 88.484ZM539.245 429.639c31.062-19.07 64.91-57.491 43.889-96.354-2.168-4.007-22.872-40.631-71.455-49.451-59.174-10.744-88.517 32.686-156.587 28.162-73.717-4.9-97.404-59.695-136.121-54.882-45.782 5.692-83.344 91.096-25.458 147.035 69.735 67.389 262.21 76.768 345.732 25.49Z" fill="#EBC136"/><path opacity=".15" d="M721.575 321.89c-15.388-21.091-31.111-61.669-17.628-99.031 1.39-3.852 14.572-39.002 40.93-44.562 32.106-6.771 45.136 38.502 81.604 38.526 39.492.026 55.336-53.049 75.641-45.668 24.009 8.728 38.922 96.415 4.822 148.353-41.079 62.567-143.991 59.094-185.369 2.382Z" fill="#EBC136"/><path opacity=".15" d="M709.467 274.802c16.818-10.678 35.155-32.169 23.81-53.866-1.17-2.237-12.346-22.682-38.623-27.573-32.005-5.956-47.909 18.33-84.731 15.855-39.876-2.68-52.653-33.275-73.601-30.557-24.772 3.215-45.151 50.959-13.874 82.167 37.68 37.595 141.799 42.686 187.019 13.974Z" fill="#EBC136"/><path opacity=".15" d="M1433.62 248.365c18.14-16.319 38.08-48.871 26.33-81.173-1.21-3.331-12.81-33.762-40.78-40.597-34.08-8.326-51.47 28.37-90.75 25.351-42.53-3.268-55.67-48.88-78.08-44.412-26.51 5.284-49.06 77.217-16.19 123.4 39.61 55.635 150.71 61.31 199.47 17.431ZM1445.61 377.852c14.1 10.952 29.54 32.873 20.23 54.77-.96 2.258-10.14 22.889-32.02 27.639-26.66 5.786-40.09-18.949-70.79-16.728-33.24 2.405-43.68 33.308-61.17 30.389-20.69-3.451-38.02-51.99-12.15-83.37 31.17-37.803 117.98-42.148 155.9-12.7Z" fill="#8047F8"/><path opacity=".15" d="M246.937 136.891c12.57 21.725 24.995 63.165 12.758 100.6-1.262 3.86-13.195 39.067-35.64 44.011-27.338 6.022-37.38-40.097-68.263-41.06-33.445-1.042-48.027 52.223-65.06 44.236-20.142-9.444-30.849-98.503-.832-150.148 36.16-62.215 123.239-56.054 157.037 2.361ZM888.507 432.947c-25.886-19.22-51.045-57.767-24.581-96.419 2.728-3.985 28.508-40.405 75.674-48.908 57.448-10.358 77.51 33.16 142.24 29.063 70.1-4.437 101.82-58.971 137.36-53.93 42.03 5.96 62.56 91.413-1.49 146.878-77.16 66.818-259.598 74.996-329.203 23.316Z" fill="#EBC136"/><path opacity=".15" d="M814.922 399.538c21.642-19.025 44.327-55.634 27.045-89.351-1.782-3.477-18.719-35.198-54.537-40.225-43.625-6.122-62.776 34.725-112.562 34.733-53.915.009-73.948-47.887-101.889-41.235-33.04 7.867-56.037 86.984-11.048 133.861 54.198 56.471 194.797 53.374 252.991 2.217ZM862.472 141.004c40.547 10.662 83.607 30.461 52.864 47.253-3.169 1.732-33.343 17.505-99.226 18.752-80.247 1.519-116.929-20.339-208.741-22.225-99.427-2.042-134.768 21.983-186.517 17.485-61.193-5.319-106.25-47.124-24.852-69.678 98.058-27.171 357.443-20.256 466.472 8.413ZM195.139 382.866c19.086-22.152 39.211-64.485 24.315-102.888-1.536-3.96-16.144-40.079-47.474-45.293-38.16-6.35-55.219 40.79-98.817 41.565-47.214.839-64.419-53.783-88.934-45.724-28.989 9.53-49.687 100.619-10.62 153.688 47.062 63.93 170.207 58.217 221.53-1.348Z" fill="#8047F8"/></g><defs><clipPath id="a"><path fill="#fff" d="M0 0h1440v544H0z"/></clipPath><filter id="b" x="-160" y="-160" width="1760" height="864" filterUnits="userSpaceOnUse" color-interpolation-filters="sRGB"><feFlood flood-opacity="0" result="BackgroundImageFix"/><feBlend in="SourceGraphic" in2="BackgroundImageFix" result="shape"/><feGaussianBlur stdDeviation="80" result="effect1_foregroundBlur_212_16580"/></filter></defs></svg>